<svg width="101" height="100" viewBox="0 0 101 100" fill="none" xmlns="http://www.w3.org/2000/svg">
<rect width="100" height="100" fill="white"/>
<path d="M30.528 42.84V39.832H42.432V42.84L38.592 43.48L26.496 74.776C25.6 77.08 24.6613 79.0427 23.68 80.664C22.6987 82.328 21.5253 83.608 20.16 84.504C18.7947 85.4 17.0667 85.848 14.976 85.848C13.2267 85.848 11.6693 85.3573 10.304 84.376C8.98133 83.3947 8.23467 82.2 8.064 80.792C8.36267 79.1707 9.04533 77.976 10.112 77.208C11.1787 76.4827 12.3947 76.12 13.76 76.12C14.6133 76.12 15.5733 76.2907 16.64 76.632C17.7493 77.016 18.7307 77.912 19.584 79.32L20.032 80.024C20.7573 79.1707 21.44 78.2107 22.08 77.144C22.7627 76.0773 23.3173 74.9467 23.744 73.752L10.496 43.352L7.68 42.84V39.832H27.072V42.776L23.296 43.608L28.864 59.032L34.24 43.608L30.528 42.84ZM42.853 71V67.736L45.797 67.032C45.8397 65.4533 45.861 63.768 45.861 61.976C45.861 60.1413 45.861 58.6693 45.861 57.56V31.256L42.405 30.616V27.736L57.189 24.856L58.277 25.56L58.021 34.456V53.08L68.069 43.48L63.269 42.84V39.832H78.885V42.84L73.253 43.608L68.133 48.216L76.581 66.648L80.613 67.736V71H65.765L59.685 55.96L58.021 57.432C58.021 58.7973 58.021 60.3973 58.021 62.232C58.021 64.024 58.0423 65.6667 58.085 67.16L60.837 67.736V71H42.853ZM89.725 72.024C87.9757 72.024 86.4823 71.4267 85.245 70.232C84.0503 69.0373 83.453 67.5867 83.453 65.88C83.453 64.1307 84.0503 62.6373 85.245 61.4C86.4823 60.1627 87.9757 59.544 89.725 59.544C91.4743 59.544 92.9463 60.1627 94.141 61.4C95.3783 62.6373 95.997 64.1307 95.997 65.88C95.997 67.5867 95.3783 69.0373 94.141 70.232C92.9463 71.4267 91.4743 72.024 89.725 72.024Z" fill="black"/>
</svg>
