<svg width="110" height="100" viewBox="0 0 110 100" fill="none" xmlns="http://www.w3.org/2000/svg">
<rect width="109" height="100" rx="5" fill="white"/>
<path d="M37.528 39.84V36.832H49.432V39.84L45.592 40.48L33.496 71.776C32.6 74.08 31.6613 76.0427 30.68 77.664C29.6987 79.328 28.5253 80.608 27.16 81.504C25.7947 82.4 24.0667 82.848 21.976 82.848C20.2267 82.848 18.6693 82.3573 17.304 81.376C15.9813 80.3947 15.2347 79.2 15.064 77.792C15.3627 76.1707 16.0453 74.976 17.112 74.208C18.1787 73.4827 19.3947 73.12 20.76 73.12C21.6133 73.12 22.5733 73.2907 23.64 73.632C24.7493 74.016 25.7307 74.912 26.584 76.32L27.032 77.024C27.7573 76.1707 28.44 75.2107 29.08 74.144C29.7627 73.0773 30.3173 71.9467 30.744 70.752L17.496 40.352L14.68 39.84V36.832H34.072V39.776L30.296 40.608L35.864 56.032L41.24 40.608L37.528 39.84ZM49.853 68V64.736L52.797 64.032C52.8397 62.4533 52.861 60.768 52.861 58.976C52.861 57.1413 52.861 55.6693 52.861 54.56V28.256L49.405 27.616V24.736L64.189 21.856L65.277 22.56L65.021 31.456V50.08L75.069 40.48L70.269 39.84V36.832H85.885V39.84L80.253 40.608L75.133 45.216L83.581 63.648L87.613 64.736V68H72.765L66.685 52.96L65.021 54.432C65.021 55.7973 65.021 57.3973 65.021 59.232C65.021 61.024 65.0423 62.6667 65.085 64.16L67.837 64.736V68H49.853ZM96.725 69.024C94.9757 69.024 93.4823 68.4267 92.245 67.232C91.0503 66.0373 90.453 64.5867 90.453 62.88C90.453 61.1307 91.0503 59.6373 92.245 58.4C93.4823 57.1627 94.9757 56.544 96.725 56.544C98.4743 56.544 99.9463 57.1627 101.141 58.4C102.378 59.6373 102.997 61.1307 102.997 62.88C102.997 64.5867 102.378 66.0373 101.141 67.232C99.9463 68.4267 98.4743 69.024 96.725 69.024Z" fill="black"/>
</svg>
