<svg width="597" height="351" viewBox="0 0 597 351" fill="none" xmlns="http://www.w3.org/2000/svg">
<circle cx="351" cy="194" r="100" fill="#73FCDB" fill-opacity="0.83"/>
<path d="M296 194C296 249.228 251.228 294 196 294C140.772 294 96 249.228 96 194C96 138.772 140.772 94 196 94C251.228 94 296 138.772 296 194Z" fill="#FF86E4" fill-opacity="0.63"/>
<path d="M484.676 14.0746C484.47 13.4283 484.193 12.8494 483.845 12.3381C483.504 11.8196 483.096 11.3793 482.62 11.017C482.144 10.6477 481.601 10.3672 480.99 10.1754C480.387 9.98366 479.722 9.88778 478.998 9.88778C477.769 9.88778 476.661 10.2038 475.674 10.8359C474.687 11.468 473.906 12.3949 473.33 13.6165C472.762 14.831 472.478 16.3189 472.478 18.0803C472.478 19.8487 472.766 21.3437 473.341 22.5653C473.916 23.7869 474.705 24.7138 475.706 25.3459C476.708 25.978 477.847 26.294 479.126 26.294C480.312 26.294 481.345 26.0526 482.226 25.5696C483.114 25.0866 483.799 24.4048 484.282 23.5241C484.772 22.6364 485.017 21.5923 485.017 20.392L485.869 20.5518H479.627V17.8352H488.203V20.3175C488.203 22.1499 487.812 23.7408 487.031 25.0902C486.257 26.4325 485.184 27.4695 483.813 28.201C482.45 28.9325 480.887 29.2983 479.126 29.2983C477.151 29.2983 475.419 28.8438 473.927 27.9347C472.443 27.0256 471.285 25.7365 470.454 24.0675C469.623 22.3913 469.208 20.4027 469.208 18.1016C469.208 16.3615 469.449 14.799 469.932 13.4141C470.415 12.0291 471.093 10.8537 471.967 9.88778C472.847 8.91477 473.881 8.17259 475.067 7.66122C476.26 7.14276 477.563 6.88352 478.977 6.88352C480.156 6.88352 481.253 7.05753 482.269 7.40554C483.291 7.75355 484.2 8.24716 484.996 8.88636C485.798 9.52557 486.463 10.2855 486.988 11.1662C487.514 12.0398 487.869 13.0092 488.053 14.0746H484.676ZM492.126 29V12.6364H495.205V15.2358H495.375C495.673 14.3551 496.199 13.6626 496.952 13.1584C497.712 12.647 498.571 12.3913 499.53 12.3913C499.729 12.3913 499.963 12.3984 500.233 12.4126C500.51 12.4268 500.727 12.4446 500.883 12.4659V15.5128C500.755 15.4773 500.528 15.4382 500.201 15.3956C499.874 15.3459 499.548 15.321 499.221 15.321C498.468 15.321 497.797 15.4808 497.207 15.8004C496.625 16.1129 496.163 16.5497 495.822 17.1108C495.482 17.6648 495.311 18.2969 495.311 19.0071V29H492.126ZM508.255 29.3622C507.218 29.3622 506.281 29.1705 505.442 28.7869C504.604 28.3963 503.94 27.8317 503.45 27.093C502.967 26.3544 502.726 25.4489 502.726 24.3764C502.726 23.4531 502.903 22.6932 503.259 22.0966C503.614 21.5 504.093 21.0277 504.697 20.6797C505.3 20.3317 505.975 20.0689 506.721 19.8913C507.467 19.7138 508.227 19.5788 509.001 19.4865C509.981 19.3729 510.776 19.2805 511.387 19.2095C511.998 19.1314 512.442 19.0071 512.719 18.8366C512.996 18.6662 513.134 18.3892 513.134 18.0057V17.9311C513.134 17.0007 512.871 16.2798 512.346 15.7685C511.827 15.2571 511.053 15.0014 510.023 15.0014C508.951 15.0014 508.106 15.2393 507.488 15.7152C506.877 16.1839 506.455 16.706 506.22 17.2812L503.227 16.5994C503.582 15.6051 504.1 14.8026 504.782 14.1918C505.471 13.5739 506.263 13.1264 507.158 12.8494C508.053 12.5653 508.994 12.4233 509.981 12.4233C510.634 12.4233 511.327 12.5014 512.058 12.6577C512.797 12.8068 513.486 13.0838 514.125 13.4886C514.771 13.8935 515.3 14.4723 515.712 15.2251C516.124 15.9709 516.33 16.9403 516.33 18.1335V29H513.219V26.7628H513.092C512.886 27.1747 512.577 27.5795 512.165 27.9773C511.753 28.375 511.224 28.7053 510.577 28.968C509.931 29.2308 509.157 29.3622 508.255 29.3622ZM508.947 26.8054C509.828 26.8054 510.581 26.6314 511.206 26.2834C511.838 25.9354 512.317 25.4808 512.644 24.9197C512.978 24.3516 513.145 23.7443 513.145 23.098V20.9886C513.031 21.1023 512.811 21.2088 512.484 21.3082C512.165 21.4006 511.799 21.4822 511.387 21.5533C510.975 21.6172 510.574 21.6776 510.183 21.7344C509.793 21.7841 509.466 21.8267 509.203 21.8622C508.585 21.9403 508.021 22.0717 507.509 22.2564C507.005 22.4411 506.6 22.7074 506.295 23.0554C505.996 23.3963 505.847 23.8509 505.847 24.419C505.847 25.2074 506.138 25.804 506.721 26.2088C507.303 26.6065 508.045 26.8054 508.947 26.8054ZM520.573 35.1364V12.6364H523.684V15.2891H523.95C524.135 14.9482 524.401 14.554 524.749 14.1065C525.097 13.6591 525.58 13.2685 526.198 12.9347C526.816 12.5938 527.633 12.4233 528.648 12.4233C529.969 12.4233 531.148 12.7571 532.185 13.4247C533.222 14.0923 534.035 15.0547 534.625 16.3118C535.221 17.5689 535.52 19.0817 535.52 20.8501C535.52 22.6186 535.225 24.1349 534.635 25.3991C534.046 26.6562 533.236 27.6257 532.206 28.3075C531.177 28.9822 530.001 29.3196 528.68 29.3196C527.686 29.3196 526.873 29.1527 526.241 28.8189C525.616 28.4851 525.126 28.0945 524.77 27.647C524.415 27.1996 524.142 26.8018 523.95 26.4538H523.758V35.1364H520.573ZM523.694 20.8182C523.694 21.9687 523.861 22.9773 524.195 23.8438C524.529 24.7102 525.012 25.3885 525.644 25.8786C526.276 26.3615 527.05 26.603 527.966 26.603C528.918 26.603 529.714 26.3509 530.353 25.8466C530.992 25.3352 531.475 24.6428 531.802 23.7692C532.135 22.8956 532.302 21.9119 532.302 20.8182C532.302 19.7386 532.139 18.7692 531.812 17.9098C531.493 17.0504 531.01 16.3722 530.363 15.875C529.724 15.3778 528.925 15.1293 527.966 15.1293C527.043 15.1293 526.262 15.3672 525.623 15.843C524.991 16.3189 524.511 16.983 524.184 17.8352C523.858 18.6875 523.694 19.6818 523.694 20.8182ZM542.274 19.2841V29H539.089V7.18182H542.231V15.2997H542.434C542.817 14.419 543.403 13.7195 544.192 13.201C544.98 12.6825 546.01 12.4233 547.281 12.4233C548.403 12.4233 549.383 12.6541 550.221 13.1158C551.067 13.5774 551.72 14.2663 552.182 15.1825C552.65 16.0916 552.885 17.228 552.885 18.5916V29H549.699V18.9751C549.699 17.7749 549.39 16.8445 548.773 16.1839C548.155 15.5163 547.295 15.1825 546.194 15.1825C545.442 15.1825 544.767 15.3423 544.17 15.6619C543.581 15.9815 543.116 16.4503 542.775 17.0682C542.441 17.679 542.274 18.4176 542.274 19.2841ZM557.135 29V12.6364H560.321V29H557.135ZM558.744 10.1115C558.19 10.1115 557.714 9.92685 557.317 9.55753C556.926 9.18111 556.731 8.73366 556.731 8.2152C556.731 7.68963 556.926 7.24219 557.317 6.87287C557.714 6.49645 558.19 6.30824 558.744 6.30824C559.298 6.30824 559.77 6.49645 560.161 6.87287C560.559 7.24219 560.758 7.68963 560.758 8.2152C560.758 8.73366 560.559 9.18111 560.161 9.55753C559.77 9.92685 559.298 10.1115 558.744 10.1115ZM571.499 29.3303C569.915 29.3303 568.551 28.9716 567.408 28.2543C566.272 27.5298 565.398 26.532 564.787 25.2607C564.176 23.9893 563.871 22.5334 563.871 20.8928C563.871 19.2308 564.184 17.7642 564.809 16.4929C565.434 15.2145 566.314 14.2166 567.451 13.4993C568.587 12.782 569.926 12.4233 571.467 12.4233C572.71 12.4233 573.818 12.6541 574.791 13.1158C575.764 13.5703 576.549 14.2095 577.145 15.0334C577.749 15.8572 578.108 16.8196 578.221 17.9205H575.121C574.951 17.1534 574.56 16.4929 573.949 15.9389C573.346 15.3849 572.536 15.108 571.52 15.108C570.632 15.108 569.855 15.3423 569.187 15.8111C568.527 16.2727 568.012 16.9332 567.642 17.7926C567.273 18.6449 567.088 19.6534 567.088 20.8182C567.088 22.0114 567.27 23.0412 567.632 23.9077C567.994 24.7741 568.505 25.4453 569.166 25.9212C569.833 26.397 570.618 26.6349 571.52 26.6349C572.124 26.6349 572.671 26.5249 573.161 26.3047C573.658 26.0774 574.074 25.7543 574.407 25.3352C574.748 24.9162 574.986 24.4119 575.121 23.8224H578.221C578.108 24.8807 577.763 25.8253 577.188 26.6562C576.613 27.4872 575.842 28.1406 574.876 28.6165C573.917 29.0923 572.792 29.3303 571.499 29.3303ZM460.729 65H453.666V43.1818H460.953C463.09 43.1818 464.926 43.6186 466.46 44.4922C467.994 45.3587 469.17 46.6051 469.987 48.2315C470.81 49.8509 471.222 51.7933 471.222 54.0589C471.222 56.3317 470.807 58.2848 469.976 59.9183C469.152 61.5518 467.959 62.8089 466.396 63.6896C464.834 64.5632 462.945 65 460.729 65ZM456.957 62.1236H460.548C462.21 62.1236 463.591 61.8111 464.692 61.1861C465.793 60.554 466.617 59.6413 467.163 58.4482C467.71 57.2479 467.984 55.7848 467.984 54.0589C467.984 52.3473 467.71 50.8949 467.163 49.7017C466.624 48.5085 465.818 47.603 464.745 46.9851C463.673 46.3672 462.341 46.0582 460.75 46.0582H456.957V62.1236ZM482.113 65.3303C480.501 65.3303 479.112 64.9858 477.947 64.2969C476.79 63.6009 475.895 62.6243 475.263 61.3672C474.638 60.103 474.325 58.6222 474.325 56.9247C474.325 55.2486 474.638 53.7713 475.263 52.4929C475.895 51.2145 476.775 50.2166 477.905 49.4993C479.041 48.782 480.369 48.4233 481.889 48.4233C482.812 48.4233 483.707 48.576 484.574 48.8814C485.44 49.1868 486.218 49.6662 486.907 50.3196C487.596 50.973 488.139 51.8217 488.537 52.8658C488.935 53.9027 489.133 55.1634 489.133 56.6477V57.777H476.126V55.3906H486.012C486.012 54.5526 485.842 53.8104 485.501 53.1641C485.16 52.5107 484.68 51.9957 484.062 51.6193C483.452 51.2429 482.734 51.0547 481.91 51.0547C481.016 51.0547 480.234 51.2749 479.567 51.7152C478.906 52.1484 478.395 52.7166 478.033 53.4197C477.677 54.1158 477.5 54.8722 477.5 55.6889V57.5533C477.5 58.647 477.692 59.5774 478.075 60.3445C478.466 61.1115 479.009 61.6974 479.705 62.1023C480.401 62.5 481.214 62.6989 482.145 62.6989C482.748 62.6989 483.299 62.6136 483.796 62.4432C484.293 62.2656 484.723 62.0028 485.085 61.6548C485.447 61.3068 485.724 60.8771 485.916 60.3658L488.931 60.9091C488.69 61.7969 488.256 62.5746 487.631 63.2422C487.013 63.9027 486.236 64.4176 485.298 64.7869C484.368 65.1491 483.306 65.3303 482.113 65.3303ZM504.93 52.6314L502.043 53.1428C501.922 52.7734 501.73 52.4219 501.467 52.0881C501.212 51.7543 500.864 51.4808 500.423 51.2678C499.983 51.0547 499.433 50.9482 498.772 50.9482C497.87 50.9482 497.117 51.1506 496.514 51.5554C495.91 51.9531 495.608 52.468 495.608 53.1001C495.608 53.647 495.81 54.0874 496.215 54.4212C496.62 54.755 497.274 55.0284 498.176 55.2415L500.775 55.8381C502.281 56.1861 503.403 56.7223 504.141 57.4467C504.88 58.1712 505.249 59.1122 505.249 60.2699C505.249 61.25 504.965 62.1236 504.397 62.8906C503.836 63.6506 503.051 64.2472 502.043 64.6804C501.041 65.1136 499.88 65.3303 498.559 65.3303C496.727 65.3303 495.232 64.9396 494.074 64.1584C492.916 63.37 492.206 62.2514 491.943 60.8026L495.022 60.3338C495.214 61.1364 495.608 61.7436 496.205 62.1555C496.801 62.5604 497.579 62.7628 498.538 62.7628C499.582 62.7628 500.416 62.5462 501.041 62.1129C501.666 61.6726 501.979 61.1364 501.979 60.5043C501.979 59.9929 501.787 59.5632 501.403 59.2152C501.027 58.8672 500.448 58.6044 499.667 58.4268L496.897 57.8196C495.37 57.4716 494.241 56.9176 493.509 56.1577C492.785 55.3977 492.423 54.4354 492.423 53.2706C492.423 52.3047 492.693 51.4595 493.232 50.7351C493.772 50.0107 494.518 49.446 495.47 49.0412C496.421 48.6293 497.511 48.4233 498.74 48.4233C500.509 48.4233 501.901 48.8068 502.916 49.5739C503.932 50.3338 504.603 51.353 504.93 52.6314ZM508.752 65V48.6364H511.937V65H508.752ZM510.36 46.1115C509.806 46.1115 509.331 45.9268 508.933 45.5575C508.542 45.1811 508.347 44.7337 508.347 44.2152C508.347 43.6896 508.542 43.2422 508.933 42.8729C509.331 42.4964 509.806 42.3082 510.36 42.3082C510.914 42.3082 511.387 42.4964 511.777 42.8729C512.175 43.2422 512.374 43.6896 512.374 44.2152C512.374 44.7337 512.175 45.1811 511.777 45.5575C511.387 45.9268 510.914 46.1115 510.36 46.1115ZM523.083 71.4773C521.783 71.4773 520.665 71.3068 519.727 70.9659C518.797 70.625 518.037 70.174 517.448 69.6129C516.858 69.0518 516.418 68.4375 516.127 67.7699L518.864 66.6406C519.056 66.9531 519.312 67.2834 519.631 67.6314C519.958 67.9865 520.399 68.2884 520.953 68.5369C521.514 68.7855 522.234 68.9098 523.115 68.9098C524.323 68.9098 525.32 68.6151 526.109 68.0256C526.897 67.4432 527.291 66.5128 527.291 65.2344V62.017H527.089C526.897 62.3651 526.62 62.7521 526.258 63.1783C525.903 63.6044 525.413 63.9737 524.788 64.2862C524.163 64.5987 523.35 64.755 522.348 64.755C521.055 64.755 519.891 64.4531 518.854 63.8494C517.824 63.2386 517.007 62.3402 516.403 61.1541C515.807 59.9609 515.509 58.4943 515.509 56.7543C515.509 55.0142 515.803 53.5227 516.393 52.2798C516.989 51.0369 517.806 50.0852 518.843 49.4247C519.88 48.7571 521.055 48.4233 522.369 48.4233C523.385 48.4233 524.205 48.5938 524.83 48.9347C525.455 49.2685 525.942 49.6591 526.29 50.1065C526.645 50.554 526.918 50.9482 527.11 51.2891H527.345V48.6364H530.466V65.3622C530.466 66.7685 530.139 67.9226 529.486 68.8246C528.832 69.7266 527.948 70.3942 526.833 70.8274C525.725 71.2607 524.475 71.4773 523.083 71.4773ZM523.051 62.1129C523.967 62.1129 524.742 61.8999 525.374 61.4737C526.013 61.0405 526.496 60.4226 526.823 59.62C527.156 58.8104 527.323 57.8409 527.323 56.7116C527.323 55.6108 527.16 54.6413 526.833 53.8033C526.506 52.9652 526.027 52.3118 525.395 51.843C524.763 51.3672 523.982 51.1293 523.051 51.1293C522.092 51.1293 521.293 51.3778 520.654 51.875C520.015 52.3651 519.532 53.0327 519.205 53.8778C518.886 54.723 518.726 55.6676 518.726 56.7116C518.726 57.7841 518.889 58.7251 519.216 59.5348C519.543 60.3445 520.026 60.9766 520.665 61.4311C521.311 61.8857 522.107 62.1129 523.051 62.1129ZM537.923 55.2841V65H534.738V48.6364H537.796V51.2997H537.998C538.374 50.4332 538.964 49.7372 539.766 49.2116C540.576 48.6861 541.595 48.4233 542.824 48.4233C543.939 48.4233 544.916 48.6577 545.754 49.1264C546.592 49.5881 547.242 50.277 547.703 51.1932C548.165 52.1094 548.396 53.2422 548.396 54.5916V65H545.21V54.9751C545.21 53.7891 544.901 52.8622 544.283 52.1946C543.666 51.5199 542.817 51.1825 541.737 51.1825C540.999 51.1825 540.342 51.3423 539.766 51.6619C539.198 51.9815 538.747 52.4503 538.413 53.0682C538.087 53.679 537.923 54.4176 537.923 55.2841ZM559.72 65.3303C558.108 65.3303 556.72 64.9858 555.555 64.2969C554.397 63.6009 553.502 62.6243 552.87 61.3672C552.245 60.103 551.933 58.6222 551.933 56.9247C551.933 55.2486 552.245 53.7713 552.87 52.4929C553.502 51.2145 554.383 50.2166 555.512 49.4993C556.649 48.782 557.977 48.4233 559.497 48.4233C560.42 48.4233 561.315 48.576 562.181 48.8814C563.048 49.1868 563.825 49.6662 564.514 50.3196C565.203 50.973 565.747 51.8217 566.144 52.8658C566.542 53.9027 566.741 55.1634 566.741 56.6477V57.777H553.733V55.3906H563.619C563.619 54.5526 563.449 53.8104 563.108 53.1641C562.767 52.5107 562.288 51.9957 561.67 51.6193C561.059 51.2429 560.342 51.0547 559.518 51.0547C558.623 51.0547 557.842 51.2749 557.174 51.7152C556.514 52.1484 556.002 52.7166 555.64 53.4197C555.285 54.1158 555.107 54.8722 555.107 55.6889V57.5533C555.107 58.647 555.299 59.5774 555.683 60.3445C556.073 61.1115 556.617 61.6974 557.313 62.1023C558.009 62.5 558.822 62.6989 559.752 62.6989C560.356 62.6989 560.906 62.6136 561.403 62.4432C561.901 62.2656 562.33 62.0028 562.693 61.6548C563.055 61.3068 563.332 60.8771 563.524 60.3658L566.538 60.9091C566.297 61.7969 565.864 62.5746 565.239 63.2422C564.621 63.9027 563.843 64.4176 562.906 64.7869C561.975 65.1491 560.913 65.3303 559.72 65.3303ZM570.275 65V48.6364H573.354V51.2358H573.524C573.823 50.3551 574.348 49.6626 575.101 49.1584C575.861 48.647 576.72 48.3913 577.679 48.3913C577.878 48.3913 578.112 48.3984 578.382 48.4126C578.659 48.4268 578.876 48.4446 579.032 48.4659V51.5128C578.904 51.4773 578.677 51.4382 578.35 51.3956C578.024 51.3459 577.697 51.321 577.37 51.321C576.617 51.321 575.946 51.4808 575.357 51.8004C574.774 52.1129 574.313 52.5497 573.972 53.1108C573.631 53.6648 573.46 54.2969 573.46 55.0071V65H570.275ZM594.051 52.6314L591.164 53.1428C591.043 52.7734 590.851 52.4219 590.589 52.0881C590.333 51.7543 589.985 51.4808 589.544 51.2678C589.104 51.0547 588.554 50.9482 587.893 50.9482C586.991 50.9482 586.238 51.1506 585.635 51.5554C585.031 51.9531 584.729 52.468 584.729 53.1001C584.729 53.647 584.932 54.0874 585.336 54.4212C585.741 54.755 586.395 55.0284 587.297 55.2415L589.896 55.8381C591.402 56.1861 592.524 56.7223 593.263 57.4467C594.001 58.1712 594.37 59.1122 594.37 60.2699C594.37 61.25 594.086 62.1236 593.518 62.8906C592.957 63.6506 592.172 64.2472 591.164 64.6804C590.162 65.1136 589.001 65.3303 587.68 65.3303C585.848 65.3303 584.353 64.9396 583.195 64.1584C582.037 63.37 581.327 62.2514 581.064 60.8026L584.143 60.3338C584.335 61.1364 584.729 61.7436 585.326 62.1555C585.922 62.5604 586.7 62.7628 587.659 62.7628C588.703 62.7628 589.537 62.5462 590.162 62.1129C590.787 61.6726 591.1 61.1364 591.1 60.5043C591.1 59.9929 590.908 59.5632 590.525 59.2152C590.148 58.8672 589.569 58.6044 588.788 58.4268L586.018 57.8196C584.491 57.4716 583.362 56.9176 582.63 56.1577C581.906 55.3977 581.544 54.4354 581.544 53.2706C581.544 52.3047 581.814 51.4595 582.353 50.7351C582.893 50.0107 583.639 49.446 584.591 49.0412C585.542 48.6293 586.633 48.4233 587.861 48.4233C589.63 48.4233 591.022 48.8068 592.037 49.5739C593.053 50.3338 593.724 51.353 594.051 52.6314Z" fill="white"/>
<path d="M5.8062 86V64.1818H13.5832C15.2806 64.1818 16.6869 64.4908 17.8019 65.1087C18.917 65.7266 19.7515 66.5717 20.3055 67.6442C20.8595 68.7095 21.1365 69.9098 21.1365 71.245C21.1365 72.5874 20.8559 73.7947 20.2948 74.8672C19.7409 75.9325 18.9028 76.7777 17.7806 77.4027C16.6656 78.0206 15.2629 78.3295 13.5725 78.3295H8.22452V75.5384H13.2742C14.3467 75.5384 15.2167 75.3537 15.8843 74.9844C16.5519 74.608 17.042 74.0966 17.3545 73.4503C17.667 72.804 17.8232 72.0689 17.8232 71.245C17.8232 70.4212 17.667 69.6896 17.3545 69.0504C17.042 68.4112 16.5484 67.9105 15.8737 67.5483C15.2061 67.1861 14.3254 67.005 13.2316 67.005H9.0981V86H5.8062ZM27.9253 76.2841V86H24.74V64.1818H27.8827V72.2997H28.0851C28.4687 71.419 29.0546 70.7195 29.843 70.201C30.6313 69.6825 31.6611 69.4233 32.9324 69.4233C34.0546 69.4233 35.0347 69.6541 35.8728 70.1158C36.718 70.5774 37.3714 71.2663 37.833 72.1825C38.3018 73.0916 38.5361 74.228 38.5361 75.5916V86H35.3508V75.9751C35.3508 74.7749 35.0418 73.8445 34.4239 73.1839C33.806 72.5163 32.9466 72.1825 31.8458 72.1825C31.093 72.1825 30.4182 72.3423 29.8216 72.6619C29.2322 72.9815 28.767 73.4503 28.426 74.0682C28.0922 74.679 27.9253 75.4176 27.9253 76.2841ZM42.7868 86V69.6364H45.9722V86H42.7868ZM44.3955 67.1115C43.8415 67.1115 43.3657 66.9268 42.968 66.5575C42.5773 66.1811 42.382 65.7337 42.382 65.2152C42.382 64.6896 42.5773 64.2422 42.968 63.8729C43.3657 63.4964 43.8415 63.3082 44.3955 63.3082C44.9495 63.3082 45.4218 63.4964 45.8124 63.8729C46.2101 64.2422 46.409 64.6896 46.409 65.2152C46.409 65.7337 46.2101 66.1811 45.8124 66.5575C45.4218 66.9268 44.9495 67.1115 44.3955 67.1115ZM53.4429 64.1818V86H50.2575V64.1818H53.4429ZM64.621 86.3303C63.0869 86.3303 61.7481 85.9787 60.6047 85.2756C59.4612 84.5724 58.5734 83.5888 57.9413 82.3246C57.3092 81.0604 56.9932 79.5831 56.9932 77.8928C56.9932 76.1953 57.3092 74.7109 57.9413 73.4396C58.5734 72.1683 59.4612 71.1811 60.6047 70.478C61.7481 69.7749 63.0869 69.4233 64.621 69.4233C66.1551 69.4233 67.4939 69.7749 68.6373 70.478C69.7808 71.1811 70.6686 72.1683 71.3007 73.4396C71.9328 74.7109 72.2488 76.1953 72.2488 77.8928C72.2488 79.5831 71.9328 81.0604 71.3007 82.3246C70.6686 83.5888 69.7808 84.5724 68.6373 85.2756C67.4939 85.9787 66.1551 86.3303 64.621 86.3303ZM64.6317 83.6562C65.626 83.6562 66.4498 83.3935 67.1032 82.8679C67.7567 82.3423 68.2396 81.6428 68.5521 80.7692C68.8717 79.8956 69.0315 78.9332 69.0315 77.8821C69.0315 76.8381 68.8717 75.8793 68.5521 75.0057C68.2396 74.125 67.7567 73.4183 67.1032 72.8857C66.4498 72.353 65.626 72.0866 64.6317 72.0866C63.6302 72.0866 62.7993 72.353 62.1388 72.8857C61.4854 73.4183 60.9988 74.125 60.6792 75.0057C60.3667 75.8793 60.2105 76.8381 60.2105 77.8821C60.2105 78.9332 60.3667 79.8956 60.6792 80.7692C60.9988 81.6428 61.4854 82.3423 62.1388 82.8679C62.7993 83.3935 63.6302 83.6562 64.6317 83.6562ZM88.0665 73.6314L85.1794 74.1428C85.0587 73.7734 84.8669 73.4219 84.6041 73.0881C84.3485 72.7543 84.0004 72.4808 83.5601 72.2678C83.1198 72.0547 82.5693 71.9482 81.9088 71.9482C81.0068 71.9482 80.254 72.1506 79.6503 72.5554C79.0466 72.9531 78.7448 73.468 78.7448 74.1001C78.7448 74.647 78.9472 75.0874 79.352 75.4212C79.7568 75.755 80.4102 76.0284 81.3122 76.2415L83.9117 76.8381C85.4173 77.1861 86.5395 77.7223 87.2781 78.4467C88.0168 79.1712 88.3861 80.1122 88.3861 81.2699C88.3861 82.25 88.102 83.1236 87.5338 83.8906C86.9727 84.6506 86.1879 85.2472 85.1794 85.6804C84.178 86.1136 83.0168 86.3303 81.6958 86.3303C79.8634 86.3303 78.3683 85.9396 77.2107 85.1584C76.053 84.37 75.3428 83.2514 75.08 81.8026L78.1588 81.3338C78.3506 82.1364 78.7448 82.7436 79.3414 83.1555C79.9379 83.5604 80.7156 83.7628 81.6744 83.7628C82.7185 83.7628 83.553 83.5462 84.178 83.1129C84.803 82.6726 85.1155 82.1364 85.1155 81.5043C85.1155 80.9929 84.9237 80.5632 84.5402 80.2152C84.1638 79.8672 83.585 79.6044 82.8037 79.4268L80.0338 78.8196C78.5068 78.4716 77.3776 77.9176 76.646 77.1577C75.9216 76.3977 75.5594 75.4354 75.5594 74.2706C75.5594 73.3047 75.8293 72.4595 76.3691 71.7351C76.9088 71.0107 77.6546 70.446 78.6063 70.0412C79.558 69.6293 80.6482 69.4233 81.8769 69.4233C83.6453 69.4233 85.0374 69.8068 86.053 70.5739C87.0686 71.3338 87.7398 72.353 88.0665 73.6314ZM98.7812 86.3303C97.2471 86.3303 95.9083 85.9787 94.7648 85.2756C93.6214 84.5724 92.7336 83.5888 92.1015 82.3246C91.4694 81.0604 91.1533 79.5831 91.1533 77.8928C91.1533 76.1953 91.4694 74.7109 92.1015 73.4396C92.7336 72.1683 93.6214 71.1811 94.7648 70.478C95.9083 69.7749 97.2471 69.4233 98.7812 69.4233C100.315 69.4233 101.654 69.7749 102.797 70.478C103.941 71.1811 104.829 72.1683 105.461 73.4396C106.093 74.7109 106.409 76.1953 106.409 77.8928C106.409 79.5831 106.093 81.0604 105.461 82.3246C104.829 83.5888 103.941 84.5724 102.797 85.2756C101.654 85.9787 100.315 86.3303 98.7812 86.3303ZM98.7918 83.6562C99.7861 83.6562 100.61 83.3935 101.263 82.8679C101.917 82.3423 102.4 81.6428 102.712 80.7692C103.032 79.8956 103.192 78.9332 103.192 77.8821C103.192 76.8381 103.032 75.8793 102.712 75.0057C102.4 74.125 101.917 73.4183 101.263 72.8857C100.61 72.353 99.7861 72.0866 98.7918 72.0866C97.7904 72.0866 96.9594 72.353 96.2989 72.8857C95.6455 73.4183 95.159 74.125 94.8394 75.0057C94.5269 75.8793 94.3707 76.8381 94.3707 77.8821C94.3707 78.9332 94.5269 79.8956 94.8394 80.7692C95.159 81.6428 95.6455 82.3423 96.2989 82.8679C96.9594 83.3935 97.7904 83.6562 98.7918 83.6562ZM109.965 92.1364V69.6364H113.075V72.2891H113.342C113.526 71.9482 113.793 71.554 114.141 71.1065C114.489 70.6591 114.972 70.2685 115.59 69.9347C116.207 69.5938 117.024 69.4233 118.04 69.4233C119.361 69.4233 120.54 69.7571 121.577 70.4247C122.614 71.0923 123.427 72.0547 124.016 73.3118C124.613 74.5689 124.911 76.0817 124.911 77.8501C124.911 79.6186 124.617 81.1349 124.027 82.3991C123.438 83.6562 122.628 84.6257 121.598 85.3075C120.568 85.9822 119.393 86.3196 118.072 86.3196C117.078 86.3196 116.264 86.1527 115.632 85.8189C115.007 85.4851 114.517 85.0945 114.162 84.647C113.807 84.1996 113.533 83.8018 113.342 83.4538H113.15V92.1364H109.965ZM113.086 77.8182C113.086 78.9687 113.253 79.9773 113.587 80.8438C113.921 81.7102 114.403 82.3885 115.036 82.8786C115.668 83.3615 116.442 83.603 117.358 83.603C118.31 83.603 119.105 83.3509 119.744 82.8466C120.384 82.3352 120.867 81.6428 121.193 80.7692C121.527 79.8956 121.694 78.9119 121.694 77.8182C121.694 76.7386 121.531 75.7692 121.204 74.9098C120.884 74.0504 120.401 73.3722 119.755 72.875C119.116 72.3778 118.317 72.1293 117.358 72.1293C116.435 72.1293 115.653 72.3672 115.014 72.843C114.382 73.3189 113.903 73.983 113.576 74.8352C113.249 75.6875 113.086 76.6818 113.086 77.8182ZM131.666 76.2841V86H128.48V64.1818H131.623V72.2997H131.825C132.209 71.419 132.795 70.7195 133.583 70.201C134.372 69.6825 135.401 69.4233 136.673 69.4233C137.795 69.4233 138.775 69.6541 139.613 70.1158C140.458 70.5774 141.112 71.2663 141.573 72.1825C142.042 73.0916 142.276 74.228 142.276 75.5916V86H139.091V75.9751C139.091 74.7749 138.782 73.8445 138.164 73.1839C137.546 72.5163 136.687 72.1825 135.586 72.1825C134.833 72.1825 134.158 72.3423 133.562 72.6619C132.972 72.9815 132.507 73.4503 132.166 74.0682C131.832 74.679 131.666 75.4176 131.666 76.2841ZM153.58 86.3303C151.967 86.3303 150.579 85.9858 149.414 85.2969C148.256 84.6009 147.362 83.6243 146.729 82.3672C146.104 81.103 145.792 79.6222 145.792 77.9247C145.792 76.2486 146.104 74.7713 146.729 73.4929C147.362 72.2145 148.242 71.2166 149.372 70.4993C150.508 69.782 151.836 69.4233 153.356 69.4233C154.279 69.4233 155.174 69.576 156.041 69.8814C156.907 70.1868 157.685 70.6662 158.374 71.3196C159.063 71.973 159.606 72.8217 160.004 73.8658C160.401 74.9027 160.6 76.1634 160.6 77.6477V78.777H147.592V76.3906H157.479C157.479 75.5526 157.308 74.8104 156.967 74.1641C156.627 73.5107 156.147 72.9957 155.529 72.6193C154.918 72.2429 154.201 72.0547 153.377 72.0547C152.482 72.0547 151.701 72.2749 151.033 72.7152C150.373 73.1484 149.862 73.7166 149.499 74.4197C149.144 75.1158 148.967 75.8722 148.967 76.6889V78.5533C148.967 79.647 149.158 80.5774 149.542 81.3445C149.933 82.1115 150.476 82.6974 151.172 83.1023C151.868 83.5 152.681 83.6989 153.612 83.6989C154.215 83.6989 154.766 83.6136 155.263 83.4432C155.76 83.2656 156.19 83.0028 156.552 82.6548C156.914 82.3068 157.191 81.8771 157.383 81.3658L160.398 81.9091C160.156 82.7969 159.723 83.5746 159.098 84.2422C158.48 84.9027 157.703 85.4176 156.765 85.7869C155.835 86.1491 154.773 86.3303 153.58 86.3303ZM164.134 86V69.6364H167.213V72.2358H167.384C167.682 71.3551 168.208 70.6626 168.96 70.1584C169.72 69.647 170.58 69.3913 171.539 69.3913C171.737 69.3913 171.972 69.3984 172.242 69.4126C172.519 69.4268 172.735 69.4446 172.892 69.4659V72.5128C172.764 72.4773 172.536 72.4382 172.21 72.3956C171.883 72.3459 171.556 72.321 171.23 72.321C170.477 72.321 169.806 72.4808 169.216 72.8004C168.634 73.1129 168.172 73.5497 167.831 74.1108C167.49 74.6648 167.32 75.2969 167.32 76.0071V86H164.134ZM187.91 73.6314L185.023 74.1428C184.902 73.7734 184.711 73.4219 184.448 73.0881C184.192 72.7543 183.844 72.4808 183.404 72.2678C182.964 72.0547 182.413 71.9482 181.753 71.9482C180.851 71.9482 180.098 72.1506 179.494 72.5554C178.89 72.9531 178.589 73.468 178.589 74.1001C178.589 74.647 178.791 75.0874 179.196 75.4212C179.601 75.755 180.254 76.0284 181.156 76.2415L183.755 76.8381C185.261 77.1861 186.383 77.7223 187.122 78.4467C187.861 79.1712 188.23 80.1122 188.23 81.2699C188.23 82.25 187.946 83.1236 187.378 83.8906C186.816 84.6506 186.032 85.2472 185.023 85.6804C184.022 86.1136 182.861 86.3303 181.54 86.3303C179.707 86.3303 178.212 85.9396 177.054 85.1584C175.897 84.37 175.187 83.2514 174.924 81.8026L178.003 81.3338C178.194 82.1364 178.589 82.7436 179.185 83.1555C179.782 83.5604 180.559 83.7628 181.518 83.7628C182.562 83.7628 183.397 83.5462 184.022 83.1129C184.647 82.6726 184.959 82.1364 184.959 81.5043C184.959 80.9929 184.767 80.5632 184.384 80.2152C184.008 79.8672 183.429 79.6044 182.647 79.4268L179.878 78.8196C178.351 78.4716 177.221 77.9176 176.49 77.1577C175.765 76.3977 175.403 75.4354 175.403 74.2706C175.403 73.3047 175.673 72.4595 176.213 71.7351C176.753 71.0107 177.498 70.446 178.45 70.0412C179.402 69.6293 180.492 69.4233 181.721 69.4233C183.489 69.4233 184.881 69.8068 185.897 70.5739C186.912 71.3338 187.584 72.353 187.91 73.6314Z" fill="white"/>
<path d="M170.711 153.117C171.289 152.525 171.278 151.575 170.685 150.996L161.026 141.565C160.433 140.986 159.483 140.998 158.904 141.591C158.326 142.183 158.337 143.133 158.93 143.712L167.516 152.095L159.133 160.681C158.554 161.274 158.566 162.224 159.158 162.802C159.751 163.381 160.701 163.37 161.28 162.777L170.711 153.117ZM94.5067 101.141C96.0462 117.394 103.735 130.692 116.662 139.826C129.554 148.935 147.552 153.834 169.655 153.569L169.619 150.57C147.948 150.829 130.626 146.019 118.393 137.375C106.195 128.756 98.952 116.257 97.4933 100.859L94.5067 101.141Z" fill="white"/>
<path d="M367.916 127.528C368.33 128.246 369.247 128.492 369.965 128.078L381.66 121.336C382.378 120.922 382.625 120.005 382.211 119.287C381.797 118.57 380.88 118.323 380.162 118.737L369.766 124.73L363.773 114.334C363.359 113.616 362.442 113.37 361.724 113.783C361.006 114.197 360.76 115.114 361.174 115.832L367.916 127.528ZM437.828 48.5099C406.636 52.1155 379.999 80.8588 367.767 126.39L370.664 127.168C382.744 82.2045 408.735 54.8928 438.172 51.4901L437.828 48.5099Z" fill="white"/>
<path d="M221.877 322.182H225.158V337.651C225.158 339.05 224.881 340.246 224.327 341.241C223.781 342.235 223.01 342.995 222.016 343.521C221.021 344.039 219.857 344.298 218.521 344.298C217.293 344.298 216.188 344.075 215.208 343.627C214.235 343.18 213.464 342.53 212.896 341.678C212.335 340.818 212.055 339.774 212.055 338.545H215.325C215.325 339.149 215.464 339.671 215.741 340.112C216.025 340.552 216.412 340.896 216.902 341.145C217.399 341.386 217.967 341.507 218.607 341.507C219.303 341.507 219.892 341.362 220.375 341.07C220.865 340.772 221.238 340.335 221.494 339.76C221.749 339.185 221.877 338.482 221.877 337.651V322.182ZM234.456 344.362C233.419 344.362 232.482 344.17 231.644 343.787C230.806 343.396 230.142 342.832 229.651 342.093C229.169 341.354 228.927 340.449 228.927 339.376C228.927 338.453 229.105 337.693 229.46 337.097C229.815 336.5 230.294 336.028 230.898 335.68C231.502 335.332 232.176 335.069 232.922 334.891C233.668 334.714 234.428 334.579 235.202 334.487C236.182 334.373 236.977 334.281 237.588 334.21C238.199 334.131 238.643 334.007 238.92 333.837C239.197 333.666 239.335 333.389 239.335 333.006V332.931C239.335 332.001 239.073 331.28 238.547 330.768C238.029 330.257 237.254 330.001 236.225 330.001C235.152 330.001 234.307 330.239 233.689 330.715C233.078 331.184 232.656 331.706 232.421 332.281L229.428 331.599C229.783 330.605 230.301 329.803 230.983 329.192C231.672 328.574 232.464 328.126 233.359 327.849C234.254 327.565 235.195 327.423 236.182 327.423C236.835 327.423 237.528 327.501 238.259 327.658C238.998 327.807 239.687 328.084 240.326 328.489C240.972 328.893 241.502 329.472 241.914 330.225C242.325 330.971 242.531 331.94 242.531 333.134V344H239.421V341.763H239.293C239.087 342.175 238.778 342.58 238.366 342.977C237.954 343.375 237.425 343.705 236.779 343.968C236.132 344.231 235.358 344.362 234.456 344.362ZM235.149 341.805C236.029 341.805 236.782 341.631 237.407 341.283C238.039 340.935 238.519 340.481 238.845 339.92C239.179 339.352 239.346 338.744 239.346 338.098V335.989C239.232 336.102 239.012 336.209 238.686 336.308C238.366 336.401 238 336.482 237.588 336.553C237.176 336.617 236.775 336.678 236.384 336.734C235.994 336.784 235.667 336.827 235.404 336.862C234.786 336.94 234.222 337.072 233.71 337.256C233.206 337.441 232.801 337.707 232.496 338.055C232.198 338.396 232.048 338.851 232.048 339.419C232.048 340.207 232.34 340.804 232.922 341.209C233.504 341.607 234.247 341.805 235.149 341.805ZM253.667 344.33C252.083 344.33 250.719 343.972 249.576 343.254C248.44 342.53 247.566 341.532 246.955 340.261C246.344 338.989 246.039 337.533 246.039 335.893C246.039 334.231 246.352 332.764 246.977 331.493C247.602 330.214 248.482 329.217 249.619 328.499C250.755 327.782 252.094 327.423 253.635 327.423C254.878 327.423 255.986 327.654 256.959 328.116C257.932 328.57 258.717 329.21 259.313 330.033C259.917 330.857 260.276 331.82 260.389 332.92H257.289C257.119 332.153 256.728 331.493 256.117 330.939C255.513 330.385 254.704 330.108 253.688 330.108C252.8 330.108 252.023 330.342 251.355 330.811C250.695 331.273 250.18 331.933 249.81 332.793C249.441 333.645 249.256 334.653 249.256 335.818C249.256 337.011 249.438 338.041 249.8 338.908C250.162 339.774 250.673 340.445 251.334 340.921C252.001 341.397 252.786 341.635 253.688 341.635C254.292 341.635 254.839 341.525 255.329 341.305C255.826 341.077 256.241 340.754 256.575 340.335C256.916 339.916 257.154 339.412 257.289 338.822H260.389C260.276 339.881 259.931 340.825 259.356 341.656C258.781 342.487 258.01 343.141 257.044 343.616C256.085 344.092 254.96 344.33 253.667 344.33ZM266.725 338.45L266.704 334.561H267.258L273.778 327.636H277.592L270.156 335.52H269.655L266.725 338.45ZM263.796 344V322.182H266.981V344H263.796ZM274.129 344L268.27 336.223L270.465 333.996L278.039 344H274.129ZM288.69 344V322.182H296.68C298.228 322.182 299.51 322.437 300.526 322.949C301.542 323.453 302.301 324.138 302.806 325.005C303.31 325.864 303.562 326.834 303.562 327.913C303.562 328.822 303.395 329.589 303.061 330.214C302.728 330.832 302.28 331.33 301.719 331.706C301.165 332.075 300.554 332.345 299.887 332.516V332.729C300.611 332.764 301.318 332.999 302.007 333.432C302.703 333.858 303.278 334.465 303.733 335.254C304.187 336.042 304.414 337.001 304.414 338.13C304.414 339.245 304.152 340.246 303.626 341.134C303.108 342.015 302.305 342.714 301.218 343.233C300.132 343.744 298.743 344 297.053 344H288.69ZM291.982 341.177H296.733C298.31 341.177 299.439 340.871 300.121 340.261C300.803 339.65 301.144 338.886 301.144 337.97C301.144 337.281 300.97 336.649 300.622 336.074C300.274 335.499 299.777 335.04 299.13 334.7C298.491 334.359 297.731 334.188 296.85 334.188H291.982V341.177ZM291.982 331.621H296.392C297.131 331.621 297.795 331.479 298.385 331.195C298.981 330.911 299.453 330.513 299.801 330.001C300.157 329.483 300.334 328.872 300.334 328.169C300.334 327.267 300.018 326.511 299.386 325.9C298.754 325.289 297.784 324.984 296.478 324.984H291.982V331.621ZM318.429 337.214V327.636H321.625V344H318.493V341.166H318.322C317.946 342.04 317.342 342.768 316.511 343.35C315.688 343.925 314.661 344.213 313.433 344.213C312.381 344.213 311.451 343.982 310.641 343.521C309.839 343.052 309.207 342.359 308.745 341.443C308.29 340.527 308.063 339.394 308.063 338.045V327.636H311.249V337.661C311.249 338.776 311.558 339.664 312.175 340.325C312.793 340.985 313.596 341.315 314.583 341.315C315.18 341.315 315.773 341.166 316.362 340.868C316.959 340.57 317.452 340.119 317.843 339.515C318.241 338.911 318.436 338.144 318.429 337.214ZM333.544 327.636V330.193H324.605V327.636H333.544ZM327.002 323.716H330.188V339.195C330.188 339.813 330.28 340.278 330.465 340.591C330.649 340.896 330.887 341.106 331.178 341.219C331.477 341.326 331.8 341.379 332.148 341.379C332.404 341.379 332.627 341.362 332.819 341.326C333.011 341.29 333.16 341.262 333.267 341.241L333.842 343.872C333.657 343.943 333.394 344.014 333.053 344.085C332.713 344.163 332.286 344.206 331.775 344.213C330.937 344.227 330.156 344.078 329.431 343.766C328.707 343.453 328.121 342.97 327.673 342.317C327.226 341.663 327.002 340.843 327.002 339.856V323.716ZM343.784 344.33C342.2 344.33 340.837 343.972 339.693 343.254C338.557 342.53 337.683 341.532 337.072 340.261C336.462 338.989 336.156 337.533 336.156 335.893C336.156 334.231 336.469 332.764 337.094 331.493C337.719 330.214 338.599 329.217 339.736 328.499C340.872 327.782 342.211 327.423 343.752 327.423C344.995 327.423 346.103 327.654 347.076 328.116C348.049 328.57 348.834 329.21 349.43 330.033C350.034 330.857 350.393 331.82 350.506 332.92H347.406C347.236 332.153 346.845 331.493 346.234 330.939C345.631 330.385 344.821 330.108 343.805 330.108C342.918 330.108 342.14 330.342 341.472 330.811C340.812 331.273 340.297 331.933 339.928 332.793C339.558 333.645 339.374 334.653 339.374 335.818C339.374 337.011 339.555 338.041 339.917 338.908C340.279 339.774 340.79 340.445 341.451 340.921C342.119 341.397 342.903 341.635 343.805 341.635C344.409 341.635 344.956 341.525 345.446 341.305C345.943 341.077 346.359 340.754 346.692 340.335C347.033 339.916 347.271 339.412 347.406 338.822H350.506C350.393 339.881 350.048 340.825 349.473 341.656C348.898 342.487 348.127 343.141 347.161 343.616C346.202 344.092 345.077 344.33 343.784 344.33ZM357.098 334.284V344H353.913V322.182H357.056V330.3H357.258C357.642 329.419 358.227 328.719 359.016 328.201C359.804 327.683 360.834 327.423 362.105 327.423C363.227 327.423 364.208 327.654 365.046 328.116C365.891 328.577 366.544 329.266 367.006 330.183C367.475 331.092 367.709 332.228 367.709 333.592V344H364.524V333.975C364.524 332.775 364.215 331.844 363.597 331.184C362.979 330.516 362.119 330.183 361.019 330.183C360.266 330.183 359.591 330.342 358.994 330.662C358.405 330.982 357.94 331.45 357.599 332.068C357.265 332.679 357.098 333.418 357.098 334.284ZM379.012 344.33C377.4 344.33 376.012 343.986 374.847 343.297C373.689 342.601 372.794 341.624 372.162 340.367C371.537 339.103 371.225 337.622 371.225 335.925C371.225 334.249 371.537 332.771 372.162 331.493C372.794 330.214 373.675 329.217 374.804 328.499C375.941 327.782 377.269 327.423 378.789 327.423C379.712 327.423 380.607 327.576 381.473 327.881C382.34 328.187 383.117 328.666 383.806 329.32C384.495 329.973 385.039 330.822 385.436 331.866C385.834 332.903 386.033 334.163 386.033 335.648V336.777H373.025V334.391H382.911C382.911 333.553 382.741 332.81 382.4 332.164C382.059 331.511 381.58 330.996 380.962 330.619C380.351 330.243 379.634 330.055 378.81 330.055C377.915 330.055 377.134 330.275 376.466 330.715C375.806 331.148 375.294 331.717 374.932 332.42C374.577 333.116 374.399 333.872 374.399 334.689V336.553C374.399 337.647 374.591 338.577 374.975 339.344C375.365 340.112 375.909 340.697 376.605 341.102C377.301 341.5 378.114 341.699 379.044 341.699C379.648 341.699 380.198 341.614 380.695 341.443C381.193 341.266 381.622 341.003 381.985 340.655C382.347 340.307 382.624 339.877 382.816 339.366L385.83 339.909C385.589 340.797 385.156 341.575 384.531 342.242C383.913 342.903 383.135 343.418 382.198 343.787C381.267 344.149 380.205 344.33 379.012 344.33ZM389.567 344V327.636H392.646V330.236H392.816C393.115 329.355 393.64 328.663 394.393 328.158C395.153 327.647 396.012 327.391 396.971 327.391C397.17 327.391 397.404 327.398 397.674 327.413C397.951 327.427 398.168 327.445 398.324 327.466V330.513C398.196 330.477 397.969 330.438 397.642 330.396C397.316 330.346 396.989 330.321 396.662 330.321C395.909 330.321 395.238 330.481 394.649 330.8C394.066 331.113 393.605 331.55 393.264 332.111C392.923 332.665 392.752 333.297 392.752 334.007V344H389.567Z" fill="white"/>
<path d="M268.478 200.774C268.108 200.034 267.206 199.734 266.466 200.104L254.393 206.146C253.652 206.517 253.352 207.418 253.723 208.159C254.094 208.9 254.995 209.2 255.736 208.829L266.467 203.458L271.837 214.19C272.208 214.93 273.109 215.23 273.85 214.86C274.591 214.489 274.891 213.588 274.52 212.847L268.478 200.774ZM278.272 308.205C266.162 288.84 260.096 273.385 258.837 257.295C257.576 241.178 261.123 224.258 268.56 201.92L265.714 200.972C258.239 223.425 254.538 240.805 255.846 257.529C257.157 274.28 263.478 290.206 275.728 309.795L278.272 308.205Z" fill="white"/>
</svg>
